<svg width="16" height="16" viewBox="0 0 16 16" fill="none" xmlns="http://www.w3.org/2000/svg">
<g clip-path="url(#clip0_299_13854)">
<path d="M2.71236 12H13.1497C13.4709 12 13.7874 11.9226 14.0724 11.7745C14.3574 11.6263 14.6025 11.4116 14.787 11.1486C14.9715 10.8857 15.0899 10.5822 15.1323 10.2637C15.1746 9.94532 15.1397 9.62138 15.0304 9.31933L13.129 4.06267C12.8043 2.89447 12.1059 1.86479 11.1406 1.13111C10.1752 0.397433 8.99618 0.000141386 7.78369 6.78207e-10V6.78207e-10C6.52151 -1.97282e-05 5.29706 0.430392 4.3125 1.22017C3.32794 2.00995 2.64215 3.11187 2.36836 4.344L0.801691 9.41067C0.70945 9.7098 0.688714 10.0264 0.74115 10.335C0.793585 10.6436 0.917729 10.9356 1.10359 11.1875C1.28945 11.4394 1.53185 11.6441 1.81126 11.7852C2.09068 11.9264 2.39933 11.9999 2.71236 12Z" fill="#8B8888"/>
<path d="M4.7334 13.3333C4.88641 14.0868 5.29522 14.7642 5.89056 15.2508C6.4859 15.7375 7.23116 16.0033 8.00007 16.0033C8.76897 16.0033 9.51423 15.7375 10.1096 15.2508C10.7049 14.7642 11.1137 14.0868 11.2667 13.3333H4.7334Z" fill="#8B8888"/>
</g>
<defs>
<clipPath id="clip0_299_13854">
<rect width="16" height="16" fill="white"/>
</clipPath>
</defs>
</svg>
