<svg width="20" height="20" viewBox="0 0 20 20" fill="none" xmlns="http://www.w3.org/2000/svg">
<path d="M7.95842 12.2244L14.809 5.374C15.0306 5.15234 15.2917 5.0415 15.5924 5.0415C15.8932 5.0415 16.1544 5.15234 16.3759 5.374C16.5976 5.59553 16.7084 5.85817 16.7084 6.16192C16.7084 6.46567 16.5976 6.72838 16.3759 6.95005L8.74196 14.5932C8.5203 14.8148 8.25912 14.9257 7.95842 14.9257C7.65773 14.9257 7.39655 14.8148 7.17488 14.5932L3.61509 11.0334C3.39342 10.8117 3.28412 10.549 3.28717 10.2453C3.29023 9.9415 3.40259 9.67886 3.62426 9.45734C3.84578 9.23567 4.10842 9.12484 4.41217 9.12484C4.71592 9.12484 4.97863 9.23567 5.2003 9.45734L7.95842 12.2244Z" fill="white"/>
</svg>
