<svg width="24" height="24" viewBox="0 0 24 24" fill="none" xmlns="http://www.w3.org/2000/svg">
<path d="M12 22C11.45 22 10.9792 21.8042 10.5875 21.4125C10.1958 21.0208 10 20.55 10 20H14C14 20.55 13.8042 21.0208 13.4125 21.4125C13.0208 21.8042 12.55 22 12 22ZM4 19V17H6V10C6 8.61667 6.41667 7.3875 7.25 6.3125C8.08333 5.2375 9.16667 4.53333 10.5 4.2V3.5C10.5 3.08333 10.6458 2.72917 10.9375 2.4375C11.2292 2.14583 11.5833 2 12 2C12.4167 2 12.7708 2.14583 13.0625 2.4375C13.3542 2.72917 13.5 3.08333 13.5 3.5V3.825C13.3333 4.15833 13.2083 4.50833 13.125 4.875C13.0417 5.24167 13 5.61667 13 6C13 7.38333 13.4875 8.5625 14.4625 9.5375C15.4375 10.5125 16.6167 11 18 11V17H20V19H4Z" fill="#D7D7D7"/>
<path d="M12 22C12.55 22 13.0208 21.8042 13.4125 21.4125C13.8042 21.0208 14 20.55 14 20H10C10 20.55 10.1958 21.0208 10.5875 21.4125C10.9792 21.8042 11.45 22 12 22ZM20 19V17H18V10C18 8.61667 17.5833 7.3875 16.75 6.3125C15.9167 5.2375 14.8333 4.53333 13.5 4.2V3.5C13.5 3.08333 13.3542 2.72917 13.0625 2.4375C12.7708 2.14583 12.4167 2 12 2C11.5833 2 11.2292 2.14583 10.9375 2.4375C10.6458 2.72917 10.5 3.08333 10.5 3.5V3.825C10.6667 4.15833 10.7917 4.50833 10.875 4.875C10.9583 5.24167 11 5.61667 11 6C11 7.38333 10.5125 8.5625 9.5375 9.5375C8.5625 10.5125 7.38333 11 6 11V17H4V19H20Z" fill="#D7D7D7"/>
</svg>
